<?xml version="1.0" encoding="UTF-8"?>
<svg width="65px" height="61px" viewBox="0 0 65 61" version="1.1" xmlns="http://www.w3.org/2000/svg" xmlns:xlink="http://www.w3.org/1999/xlink">
    <title>Combined Shape</title>
    <g id="Page-1" stroke="none" stroke-width="1" fill="none" fill-rule="evenodd">
        <g id="Frame" transform="translate(-443, -84)" fill="#FFCD00">
            <path d="M477.172896,86.3254675 L504.741876,107.864715 C507.78832,110.244858 508.328464,114.643976 505.948321,117.690421 L487.478476,141.330743 C485.098333,144.377188 480.699215,144.917331 477.652771,142.537188 L449.906545,120.859461 C448.544496,119.795312 447.624318,118.264859 447.32321,116.562823 L443.660083,95.8567037 C442.986607,92.049824 445.526732,88.4177776 449.333612,87.7443012 C449.449505,87.7237985 449.565897,87.7062218 449.682676,87.691588 L471.992893,84.8958641 C473.840992,84.6642764 475.705185,85.1787657 477.172896,86.3254675 Z M463,98 C460.790861,98 459,99.790861 459,102 C459,104.209139 460.790861,106 463,106 C465.209139,106 467,104.209139 467,102 C467,99.790861 465.209139,98 463,98 Z" id="Combined-Shape"></path>
        </g>
    </g>
</svg>